<?xml version="1.0" standalone="no"?>
<!DOCTYPE svg PUBLIC "-//W3C//DTD SVG 20010904//EN"
 "http://www.w3.org/TR/2001/REC-SVG-20010904/DTD/svg10.dtd">
<svg version="1.0" xmlns="http://www.w3.org/2000/svg"
 width="166.000000pt" height="166.000000pt" viewBox="0 0 166.000000 166.000000"
 preserveAspectRatio="xMidYMid meet">
<metadata>
Created by potrace 1.11, written by Peter Selinger 2001-2013
</metadata>
<g transform="translate(0.000000,166.000000) scale(0.100000,-0.100000)"
fill="#000000" stroke="none">
<path d="M1030 1249 c-73 -8 -157 -29 -180 -44 -9 -6 -23 -21 -31 -35 -26 -41
-124 -61 -324 -67 -274 -9 -474 23 -467 74 2 12 -1 24 -7 27 -5 3 -7 15 -4 26
3 11 0 20 -6 20 -8 0 -11 -105 -11 -375 0 -372 0 -374 22 -395 13 -12 29 -18
40 -14 22 7 78 -4 78 -16 0 -4 -10 -6 -22 -3 -21 4 -21 3 -5 -7 13 -9 30 -9
57 -2 22 5 38 7 37 3 -3 -9 4 -12 51 -21 33 -6 40 -5 32 5 -8 9 -4 12 12 10
13 -1 34 -4 48 -5 21 -2 20 -4 -10 -10 -23 -5 6 -7 80 -7 74 0 103 2 80 7 -37
8 -27 11 48 15 25 1 38 -2 30 -6 -9 -6 -3 -9 15 -9 20 0 26 4 21 12 -5 8 0 7
11 -2 10 -8 16 -10 12 -3 -5 8 5 14 30 18 21 4 51 12 67 18 23 8 31 8 34 -2 3
-8 8 -7 19 6 8 10 12 12 8 6 -8 -16 0 -16 26 -3 10 6 19 17 19 26 0 8 7 17 15
20 8 4 15 12 15 20 0 7 22 20 52 29 58 17 92 20 70 7 -8 -6 4 -9 30 -9 39 -1
40 0 13 7 -28 7 -29 8 -5 10 14 1 33 3 42 5 10 2 20 -1 24 -6 3 -5 28 -9 56
-9 28 0 48 3 45 7 -4 3 -23 6 -43 5 -20 -1 -34 1 -31 4 10 10 191 12 212 3 17
-8 15 -9 -8 -6 -15 3 -30 0 -33 -4 -3 -5 20 -9 50 -9 30 0 57 4 60 9 3 5 15 7
27 4 16 -4 17 -8 7 -14 -19 -13 0 -11 24 2 15 8 19 8 14 0 -5 -7 2 -11 16 -11
18 0 20 2 8 10 -24 15 9 13 58 -4 22 -8 44 -11 48 -8 4 4 5 -1 1 -10 -3 -9 0
-19 8 -21 7 -3 20 -25 28 -49 14 -40 15 -18 16 328 l1 371 -22 20 c-42 37
-156 55 -358 58 -102 1 -214 -1 -250 -6z"/>
<path d="M936 551 c-4 -5 3 -7 14 -4 23 6 26 13 6 13 -8 0 -17 -4 -20 -9z"/>
<path d="M1535 550 c11 -5 29 -8 40 -8 16 0 15 2 -5 8 -34 11 -60 11 -35 0z"/>
<path d="M1652 410 c0 -14 2 -19 5 -12 2 6 2 18 0 25 -3 6 -5 1 -5 -13z"/>
</g>
</svg>
